{
    "asset" : {
        "generator" : "Khronos glTF Blender I/O v1.1.46",
        "version" : "2.0"
    },
    "scene" : 0,
    "scenes" : [
        {
            "name" : "Scene",
            "nodes" : [
                0
            ]
        }
    ],
    "nodes" : [
        {
            "mesh" : 0,
            "name" : "Suzanne_Suzanne",
            "rotation" : [
                0.6231701374053955,
                0,
                0,
                0.7820863723754883
            ],
            "translation" : [
                0,
                0.014200001955032349,
                0
            ]
        }
    ],
    "materials" : [
        {
            "doubleSided" : true,
            "emissiveFactor" : [
                0,
                0,
                0
            ],
            "name" : "Material.002",
            "pbrMetallicRoughness" : {
                "baseColorFactor" : [
                    1,
                    0.6705882549285889,
                    0,
                    1
                ],
                "metallicFactor" : 1,
                "roughnessFactor" : 0
            }
        }
    ],
    "meshes" : [
        {
            "name" : "Suzanne_Suzanne-mesh",
            "primitives" : [
                {
                    "attributes" : {
                        "POSITION" : 0,
                        "NORMAL" : 1
                    },
                    "indices" : 2,
                    "material" : 0
                }
            ]
        }
    ],
    "accessors" : [
        {
            "bufferView" : 0,
            "componentType" : 5126,
            "count" : 7958,
            "max" : [
                1.3306844234466553,
                0.8228961229324341,
                0.9730833172798157
            ],
            "min" : [
                -1.3306844234466553,
                -0.7838895320892334,
                -0.9419557452201843
            ],
            "type" : "VEC3"
        },
        {
            "bufferView" : 1,
            "componentType" : 5126,
            "count" : 7958,
            "type" : "VEC3"
        },
        {
            "bufferView" : 2,
            "componentType" : 5123,
            "count" : 47232,
            "type" : "SCALAR"
        }
    ],
    "bufferViews" : [
        {
            "buffer" : 0,
            "byteLength" : 95496,
            "byteOffset" : 0
        },
        {
            "buffer" : 0,
            "byteLength" : 95496,
            "byteOffset" : 95496
        },
        {
            "buffer" : 0,
            "byteLength" : 94464,
            "byteOffset" : 190992
        }
    ],
    "buffers" : [
        {
            "byteLength" : 285456,
            "uri" : "chuchan.glb.bin"
        }
    ]
}
